<svg width="70" height="56" viewBox="0 0 70 56" fill="none" xmlns="http://www.w3.org/2000/svg">
<path d="M0.000361032 7.30898C-0.00395851 7.14483 0.0305338 6.98195 0.101085 6.83334C0.161346 6.70502 0.249544 6.59149 0.359353 6.5009C0.47197 6.41382 0.599779 6.34794 0.736423 6.30655C0.870954 6.26451 1.01116 6.24295 1.15223 6.24262H3.35784C3.46432 6.23777 3.5707 6.2543 3.67056 6.29122C3.77043 6.32813 3.86172 6.38467 3.93894 6.45743C4.09361 6.61744 4.21941 6.80254 4.31085 7.00467C4.41448 7.24379 4.50078 7.4899 4.56911 7.74115C4.64606 8.00198 4.73833 8.25814 4.84546 8.50831C5.1373 8.19122 5.42398 7.87924 5.71065 7.57238C5.99167 7.27014 6.30128 6.99526 6.63525 6.75151C6.97856 6.51116 7.35296 6.31763 7.74838 6.17614C8.17946 6.02137 8.63549 5.94597 9.09396 5.95366C9.56486 5.94919 10.0352 5.98771 10.4989 6.06873C10.8997 6.14178 11.2918 6.25576 11.6689 6.40884C12.0524 6.56444 12.4206 6.75446 12.7691 6.97654C13.1333 7.20669 13.5284 7.48799 13.9546 7.78462C14.3729 8.025 14.5796 8.29607 14.5796 8.63362C14.5628 8.89586 14.4783 9.14946 14.3342 9.3701L13.0093 11.6025C12.9081 11.7706 12.7654 11.9104 12.5947 12.0089C12.4239 12.1073 12.2306 12.161 12.033 12.1651C11.8013 12.1591 11.5735 12.1051 11.3641 12.0066C10.9946 11.6369 10.564 11.3325 10.0909 11.1064C9.62602 10.9026 9.12192 10.8013 8.61358 10.8098C8.27441 10.8037 7.93685 10.8574 7.61667 10.9684C7.33455 11.0728 7.07251 11.2241 6.84187 11.4159C6.60145 11.6208 6.38566 11.8525 6.19878 12.1063C5.99475 12.3748 5.79072 12.674 5.58669 13.0013V23.4322C5.61163 23.731 5.51911 24.0278 5.32842 24.2607C5.20396 24.3698 5.05795 24.4521 4.89966 24.5022C4.74138 24.5524 4.57428 24.5695 4.40899 24.5523H1.13416C0.378292 24.5523 0.000361032 24.1789 0.000361032 23.4322V7.30898Z" fill="#A3C64F"/>
<path d="M15.755 15.4074C15.7514 14.5436 15.8661 13.6834 16.0959 12.8501C16.5294 11.2792 17.3698 9.84766 18.534 8.69722C19.1078 8.12717 19.7557 7.63528 20.4606 7.2345C21.1808 6.82531 21.9518 6.51069 22.754 6.29856C23.5869 6.07086 24.4469 5.95475 25.3109 5.95333C26.5876 5.94489 27.8527 6.19282 29.0299 6.68214C30.1664 7.14932 31.1986 7.83411 32.0672 8.69722C32.9328 9.55874 33.6245 10.576 34.1049 11.6943C34.6127 12.8673 34.872 14.1311 34.8668 15.4074C34.8702 16.266 34.7555 17.1212 34.5259 17.9492C34.3036 18.7432 33.9808 19.5062 33.5651 20.22C32.316 22.3419 30.2758 23.8937 27.8832 24.5417C27.045 24.7675 26.1796 24.8793 25.3109 24.8742C24.448 24.879 23.5882 24.7706 22.754 24.5519C20.3488 23.91 18.2973 22.3529 17.0463 20.22C16.1924 18.7576 15.7467 17.0966 15.755 15.4074V15.4074ZM21.065 15.4074C21.0608 16.0124 21.1622 16.6137 21.3646 17.1846C21.5498 17.7129 21.8376 18.2002 22.2117 18.6192C22.5799 19.0269 23.0304 19.3535 23.534 19.5782C24.0859 19.82 24.6842 19.9404 25.2876 19.9311C25.8769 19.94 26.4608 19.8194 26.9974 19.5782C27.4918 19.3531 27.9321 19.0262 28.2887 18.6192C28.6521 18.1983 28.9285 17.7109 29.1023 17.1846C29.4811 16.0356 29.4811 14.797 29.1023 13.648C28.9253 13.1122 28.6495 12.6137 28.2887 12.1776C27.9231 11.7411 27.4632 11.3916 26.9428 11.1548C26.4225 10.918 25.8551 10.8 25.2825 10.8095C24.6774 10.8001 24.078 10.926 23.5288 11.1777C23.0234 11.4151 22.5745 11.7559 22.2117 12.1776C21.8412 12.6121 21.5549 13.1106 21.3671 13.648C21.1629 14.2126 21.0581 14.8077 21.0572 15.4074H21.065Z" fill="#A3C64F"/>
<path d="M37.1905 15.4062C37.187 14.5425 37.3017 13.6822 37.5315 12.849C37.7468 12.0567 38.0663 11.2958 38.4819 10.5859C38.8927 9.89461 39.3928 9.25933 39.9695 8.69609C40.5433 8.12603 41.1913 7.63414 41.8962 7.23336C42.6164 6.82418 43.3873 6.50955 44.1896 6.29742C45.0264 6.07314 45.8899 5.96132 46.7568 5.96498C48.0074 5.95822 49.2471 6.19599 50.4047 6.66466C51.5623 7.13333 52.6151 7.82367 53.5027 8.69609C54.3684 9.55761 55.06 10.5748 55.5404 11.6931C56.0483 12.8662 56.3076 14.13 56.3023 15.4062C56.3057 16.2649 56.191 17.12 55.9614 17.9481C55.7391 18.7421 55.4163 19.5051 55.0007 20.2189C54.1588 21.6441 52.9527 22.8245 51.5037 23.6416C50.0547 24.4586 48.4139 24.8833 46.7464 24.873C45.8835 24.8779 45.0238 24.7695 44.1896 24.5508C42.5927 24.1284 41.1368 23.2956 39.9695 22.1368C39.3906 21.565 38.8904 20.9202 38.4819 20.2189C37.628 18.7565 37.1823 17.0954 37.1905 15.4062V15.4062ZM42.5005 15.4062C42.4964 16.0113 42.5977 16.6125 42.8001 17.1835C42.9854 17.7118 43.2731 18.1991 43.6472 18.6181C44.0149 19.0263 44.4655 19.3531 44.9696 19.577C45.5214 19.8189 46.1197 19.9393 46.7232 19.9299C47.3124 19.9386 47.8963 19.8181 48.4329 19.577C48.9274 19.352 49.3676 19.025 49.7243 18.6181C50.0877 18.1972 50.3641 17.7098 50.5378 17.1835C50.9167 16.0344 50.9167 14.7959 50.5378 13.6469C50.3609 13.1111 50.085 12.6125 49.7243 12.1765C49.3587 11.74 48.8987 11.3905 48.3784 11.1537C47.858 10.9169 47.2906 10.7988 46.718 10.8083C46.113 10.799 45.5135 10.9248 44.9644 11.1766C44.4585 11.4133 44.0095 11.7542 43.6472 12.1765C43.2768 12.611 42.9905 13.1095 42.8027 13.6469C42.5985 14.2114 42.4936 14.8065 42.4928 15.4062H42.5005Z" fill="#A3C64F"/>
<path d="M60.9513 6.50029C60.9468 5.62678 61.1457 4.76401 61.5324 3.97887C61.914 3.20034 62.4396 2.49951 63.082 1.91265C63.7393 1.31694 64.4996 0.843136 65.3263 0.513851C66.1675 0.174086 67.0676 0.000349739 67.9761 0.00240826H68.2654C68.4084 -0.00757856 68.5519 0.0135751 68.6857 0.0643817C68.8196 0.115188 68.9406 0.194414 69.0402 0.296488C69.2268 0.526591 69.319 0.817844 69.2985 1.11224V3.8638C69.3112 4.18334 69.2107 4.49724 69.0144 4.75115C68.9269 4.86474 68.8133 4.95602 68.683 5.01739C68.5528 5.07877 68.4096 5.10848 68.2654 5.10405H67.9761C67.7765 5.10333 67.5785 5.13976 67.3924 5.21145C67.2099 5.28079 67.0405 5.38022 66.8914 5.50553C66.7471 5.62861 66.6278 5.77791 66.5402 5.94537C66.4536 6.1177 66.4094 6.30783 66.411 6.50029V8.15736H68.6993C68.8392 8.14561 68.9801 8.16222 69.1133 8.20619C69.2465 8.25016 69.3693 8.32056 69.4741 8.41308C69.6697 8.6494 69.7626 8.9529 69.7324 9.25696V11.9037C69.7644 12.2277 69.6722 12.5517 69.4741 12.8115C69.3737 12.9122 69.2524 12.9902 69.1187 13.0401C68.9849 13.09 68.8418 13.1106 68.6993 13.1005H66.4162V23.4316C66.4265 23.5892 66.398 23.7469 66.3332 23.8912C66.2684 24.0355 66.1693 24.1621 66.0443 24.2601C65.8165 24.4443 65.5326 24.547 65.2385 24.5517H62.0954C61.9444 24.5584 61.7936 24.5342 61.6526 24.4805C61.5115 24.4268 61.3832 24.3447 61.2758 24.2395C61.1683 24.1343 61.084 24.0082 61.0281 23.8692C60.9723 23.7301 60.9461 23.5811 60.9513 23.4316V13.1005H59.4533C59.1503 13.1143 58.8538 13.0107 58.6268 12.8115C58.5136 12.6902 58.4272 12.5468 58.3734 12.3904C58.3195 12.234 58.2994 12.0682 58.3143 11.9037V9.26719C58.3005 9.11243 58.3214 8.95656 58.3754 8.81069C58.4294 8.66482 58.5153 8.53255 58.6268 8.42331C58.8611 8.24204 59.1539 8.15116 59.4507 8.16759H60.9513V6.50029Z" fill="#A3C64F"/>
<path d="M66.4135 28.7197H3.49694C1.56563 28.7197 0 30.2699 0 32.1822V51.7398C0 53.652 1.56563 55.2022 3.49694 55.2022H66.4135C68.3448 55.2022 69.9104 53.652 69.9104 51.7398V32.1822C69.9104 30.2699 68.3448 28.7197 66.4135 28.7197Z" fill="#A3C64F"/>
<path d="M2.69492 41.9528C2.6897 40.1522 3.16836 38.3826 4.08182 36.8256C4.51904 36.0864 5.05024 35.4057 5.66241 34.8003C6.27842 34.1929 6.97321 33.6692 7.72855 33.243C9.30099 32.3522 11.0823 31.8866 12.8939 31.8928C14.2255 31.885 15.5456 32.1378 16.7782 32.6368C18.0108 33.1358 19.1316 33.871 20.0763 34.8003C20.9986 35.7172 21.735 36.8005 22.2458 37.9917C22.7842 39.2454 23.0558 40.5956 23.0438 41.9579C23.0474 42.8728 22.9248 43.7839 22.6797 44.666C22.4415 45.5121 22.0943 46.3243 21.6466 47.0826C20.7709 48.5736 19.5187 49.8136 18.0128 50.6806C16.4555 51.577 14.6849 52.0457 12.8836 52.0385C11.9601 52.042 11.0403 51.9233 10.1485 51.6856C7.58942 51.0054 5.40582 49.3507 4.07407 47.0826C3.62635 46.3243 3.27914 45.5121 3.041 44.666C2.80145 43.7814 2.68501 42.8686 2.69492 41.9528V41.9528ZM8.35098 41.9528C8.34591 42.5979 8.45338 43.2389 8.66864 43.8477C8.86403 44.4124 9.16938 44.9337 9.56742 45.3821C9.96021 45.8167 10.4406 46.1652 10.9776 46.4049C11.5651 46.6627 12.2022 46.791 12.8448 46.7808C13.4723 46.7901 14.0941 46.6617 14.6656 46.4049C15.1933 46.1646 15.6634 45.8159 16.0448 45.3821C16.433 44.932 16.7279 44.4107 16.9125 43.8477C17.3154 42.6238 17.3154 41.3049 16.9125 40.0809C16.7238 39.5105 16.4295 38.9798 16.0448 38.5159C15.6564 38.0503 15.167 37.6775 14.613 37.4251C14.059 37.1728 13.4546 37.0474 12.8448 37.0583C12.2006 37.0482 11.5624 37.1819 10.9776 37.4496C10.4326 37.7005 9.94821 38.0641 9.55708 38.5159C9.16259 38.9783 8.85787 39.5089 8.65831 40.0809C8.44864 40.6829 8.34469 41.3161 8.35098 41.9528V41.9528Z" fill="white"/>
<path d="M26.526 32.4781C26.6475 32.372 26.7941 32.2981 26.9522 32.2633C27.0923 32.2337 27.235 32.2182 27.3783 32.2173H29.7182C29.8746 32.2111 30.0303 32.2411 30.1729 32.3051C30.3155 32.369 30.441 32.465 30.5395 32.5855C30.6342 32.701 30.71 32.8304 30.7642 32.9691C30.821 33.1123 30.8752 33.2606 30.9269 33.4115L31.2523 34.7592C31.4451 34.3929 31.6992 34.0618 32.0039 33.7797C32.3891 33.4157 32.8237 33.1067 33.2952 32.8617C33.8576 32.5667 34.4531 32.3383 35.0695 32.1815C35.8039 31.9991 36.5594 31.9132 37.3164 31.9258C38.367 31.901 39.4093 32.1142 40.364 32.5489C41.3187 32.9837 42.1606 33.6285 42.8253 34.4344C43.4863 35.2394 43.9859 36.1621 44.2974 37.1527C44.6393 38.2281 44.8092 39.3497 44.801 40.4771V50.5269C44.8231 50.842 44.7315 51.1546 44.5428 51.4092C44.4381 51.5158 44.3108 51.598 44.1701 51.6497C44.0294 51.7015 43.8788 51.7215 43.7292 51.7084H40.147C39.8254 51.742 39.502 51.6633 39.2328 51.4859C39.0606 51.3376 38.9745 51.0486 38.9745 50.619V40.6024C38.9757 40.1677 38.8721 39.739 38.6723 39.3519C38.4719 38.9594 38.2016 38.606 37.8743 38.3086C37.5448 38.0075 37.1646 37.766 36.7508 37.5951C36.3423 37.4242 35.903 37.3372 35.4595 37.3394C35.0662 37.347 34.6787 37.434 34.3205 37.5951C33.9281 37.762 33.5667 37.9927 33.2513 38.2779C32.9229 38.5721 32.6455 38.9177 32.43 39.3008C32.2084 39.6935 32.0787 40.1304 32.0504 40.5794V50.5525C32.0482 50.7276 32.0141 50.9009 31.9496 51.0639C31.8927 51.2245 31.7872 51.3638 31.6475 51.4629C31.53 51.5373 31.4021 51.5942 31.2678 51.6316C31.1335 51.6641 30.9955 51.6796 30.8572 51.6777H27.3757C27.2103 51.7038 27.041 51.6918 26.881 51.6426C26.721 51.5934 26.5746 51.5084 26.4532 51.3941C26.3318 51.2798 26.2386 51.1394 26.1809 50.9837C26.1232 50.828 26.1026 50.6612 26.1205 50.4962V33.3425C26.1188 33.1554 26.1641 32.9709 26.2523 32.8054C26.3348 32.6469 26.4611 32.5148 26.6164 32.4244L26.526 32.4781Z" fill="white"/>
<path d="M65.0046 49.3576C64.106 50.1794 63.0671 50.8365 61.9364 51.2986C60.7898 51.7663 59.5607 52.0036 58.3206 51.9967C55.5927 52.0069 52.9672 50.9692 50.9961 49.1019C50.0401 48.1905 49.2717 47.1041 48.7337 45.9028C48.1689 44.6425 47.8836 43.277 47.8969 41.8982C47.8973 40.155 48.3414 38.44 49.1883 36.9117C49.5964 36.1751 50.0962 35.4921 50.6759 34.8787C51.2541 34.2643 51.9134 33.7301 52.6361 33.2907C53.3717 32.8473 54.1639 32.5033 54.9915 32.2678C55.8628 32.0189 56.7656 31.8949 57.6724 31.8995C58.5157 31.8976 59.3553 32.0112 60.1672 32.2371C60.9617 32.4574 61.7246 32.7771 62.4374 33.1884C63.1449 33.5975 63.7982 34.0922 64.3821 34.6613C64.9633 35.2247 65.4733 35.8558 65.9008 36.5409C66.3243 37.221 66.6551 37.9536 66.8848 38.7196C67.1175 39.4939 67.235 40.2977 67.2334 41.1055C67.2334 41.6374 67.2257 42.0721 67.2102 42.4097C67.2108 42.6956 67.1273 42.9755 66.97 43.2152C66.7894 43.4364 66.5329 43.5839 66.2494 43.6295C65.7616 43.7193 65.2656 43.7578 64.7695 43.7445H53.6124C53.6899 44.3327 53.9048 44.8948 54.24 45.3863C54.5316 45.8037 54.9027 46.1607 55.3325 46.4373C55.7371 46.695 56.1822 46.8843 56.6496 46.9973C57.0803 47.1055 57.5225 47.1622 57.9668 47.1661C58.3519 47.1646 58.7359 47.1261 59.1135 47.051C59.5001 46.9759 59.8807 46.8734 60.2524 46.7442C60.6004 46.6246 60.9374 46.4757 61.2597 46.2992C61.5282 46.1566 61.7758 45.9786 61.9958 45.7699C62.1294 45.6589 62.2719 45.5588 62.4219 45.4707C62.5373 45.4047 62.6683 45.3703 62.8016 45.3709C62.9493 45.3752 63.0924 45.4233 63.2122 45.509C63.3818 45.6273 63.54 45.7609 63.6848 45.908L65.3274 47.7491C65.4241 47.8532 65.498 47.976 65.5444 48.1097C65.5753 48.217 65.591 48.328 65.5908 48.4396C65.5954 48.6299 65.5354 48.8163 65.4204 48.9689C65.3012 49.1174 65.1611 49.2483 65.0046 49.3576V49.3576ZM57.551 36.5716C57.1487 36.5714 56.7507 36.6524 56.381 36.8094C55.9987 36.9711 55.6413 37.1854 55.3195 37.4461C54.9882 37.7128 54.6892 38.0166 54.4285 38.3514C54.1773 38.6682 53.9617 39.0112 53.7854 39.3743H61.7039C61.4961 38.9897 61.2605 38.6205 60.9988 38.2696C60.7502 37.9366 60.4584 37.6374 60.1311 37.3796C59.7962 37.1188 59.4189 36.9165 59.0153 36.7813C58.5423 36.6315 58.0475 36.5607 57.551 36.5716V36.5716Z" fill="white"/>
</svg>
